# xmcd
# 
# Track frame offsets:
#     150
#     25768
#     54513
#     81730
#     107153
#     133878
#     163200
#     190950
#     216740
#     237470
# 
# Disc length: 3507
# 
# Revision: 2
# Processed by: cddbd v1.5.2PL0 Copyright (c) Steve Scherf et al.
# Submitted via: fre:ac v1.0.31
# 
DISCID=9d0db10a
DTITLE=Various Artist - Sài Gòn Niềm Nhớ Không Tên - Ngọc Lan - Lệ Hằng - Kiều Nga - Elvis Phương - Như Mai - Hằng Nga - Người Đẹp Bình Dương Productions
DYEAR=1990
DGENRE=Pop
TTITLE0=Lệ Hằng - Sài Gòn Niềm Nhớ Không Tên -  Nguyễn Đình Toàn
TTITLE1=Ngọc Lan - Ai Trở Về Xứ Việt - Việt Dzũng
TTITLE2=Hằng Nga - Người Di Tản Buồn - Nam Lộc
TTITLE3=Như Mai - Khi Xa Sài Gòn - Lê Uyên Phương - Thơ Kim Tuấn
TTITLE4=Carol Kim - Ở Bên Nhà - Phạm Duy
TTITLE5=Lệ Hằng - Một Lần Đi - Nguyệt Ánh
TTITLE6=Elvis Phương - Sài Gòn Niềm Nhớ
TTITLE7=Carol Kim - Mười Năm Yêu Em - Trầm Tử Thiêng
TTITLE8=Kiều Nga - Bản Tình Ca Cho Em - Ngô Thụy Miên
TTITLE9=Lệ Hằng - Em Nay Ở Phương Nào - Trần Chí Phúc
EXTD=
EXTT0=
EXTT1=
EXTT2=
EXTT3=
EXTT4=
EXTT5=
EXTT6=
EXTT7=
EXTT8=
EXTT9=
PLAYORDER=
